
<svg xmlns="http://www.w3.org/2000/svg" width="32" height="32" viewBox="0 0 32 32">
  <path fill="#e53935" d="M16 0C10.477 0 6 4.477 6 10c0 6.332 8.066 19.396 9.325 21.375.378.594 1.031.965 1.675.965.644 0 1.297-.371 1.675-.965C19.934 29.396 28 16.332 28 10c0-5.523-4.477-10-10-10z"/>
  <circle cx="16" cy="10" r="8" fill="#e53935"/>
  <path fill="white" d="M16 4c-1.08 0-2.1.265-3 .732V14c0 1.657 1.343 3 3 3s3-1.343 3-3c0-1.657-1.343-3-3-3-.351 0-.687.064-1 .178V6.57c.326-.074.66-.07 1-.07 1.93 0 3.5 1.57 3.5 3.5S18.93 13.5 17 13.5c0 0 2.5 0 2.5-3.5S19.5 4 16 4z"/>
</svg>
